<svg id="SvgjsSvg1001" width="288" height="288" xmlns="http://www.w3.org/2000/svg" version="1.1" xmlns:xlink="http://www.w3.org/1999/xlink" xmlns:svgjs="http://svgjs.com/svgjs"><defs id="SvgjsDefs1002"></defs><g id="SvgjsG1008" transform="matrix(1,0,0,1,0,0)"><svg xmlns="http://www.w3.org/2000/svg" width="288" height="288" enable-background="new 0 0 20 20" version="1.0" viewBox="0 0 20 20"><symbol id="a" viewBox="-16 -16 32 32"><polygon points="-15.75 -15.75 -15.75 15.75 15.75 15.75 15.75 -15.75" fill="#ff6699" class="color000 svgShape"></polygon><path d="M15.5,15.5v-31h-31v31H15.5 M16,16h-32v-32h32V16L16,16z" fill="#ff6699" class="color000 svgShape"></path></symbol><symbol id="c" viewBox="-16 -15.5 32 31"><polygon points="16 -15.5 -16 -15.5 -16 15.5 16 15.5" fill="#ff6699" class="color000 svgShape"></polygon></symbol><symbol id="e" viewBox="-16 -16 32 32"><polygon points="-15.75 -15.75 -15.75 15.75 15.75 15.75 15.75 -15.75" fill="#ff6699" class="color000 svgShape"></polygon><path d="M15.5,15.5v-31h-31v31H15.5 M16,16h-32v-32h32V16L16,16z" fill="#ff6699" class="color000 svgShape"></path></symbol><path d="M4 9C3.447 9 3 8.552 3 8c0-2.206 1.794-4 4-4 .447 0 .887.073 1.306.218.522.181.8.75.619 1.272C8.743 6.012 8.173 6.288 7.653 6.109 7.444 6.037 7.225 6 7 6 5.897 6 5 6.897 5 8 5 8.552 4.553 9 4 9L4 9zM10.001 9C9.949 9 9.896 8.996 9.843 8.988c-.545-.087-.917-.599-.83-1.145C9.378 5.544 10.98 4 13 4c2.206 0 4 1.794 4 4 0 .552-.447 1-1 1s-1-.448-1-1c0-1.103-.897-2-2-2-1.231 0-1.847 1.114-2.013 2.157C10.909 8.649 10.484 9 10.001 9L10.001 9z" fill="#ff6699" class="color000 svgShape"></path><path d="M10,17c-0.217,0-0.435-0.071-0.615-0.212C8.731,16.278,3,11.698,3,8c0-0.552,0.447-1,1-1s1,0.448,1,1     c0,1.875,2.851,4.904,5,6.712c2.149-1.81,5-4.841,5-6.712c0-0.552,0.447-1,1-1s1,0.448,1,1c0,3.698-5.731,8.278-6.385,8.788     C10.435,16.929,10.217,17,10,17L10,17z" fill="#ff6699" class="color000 svgShape"></path></svg></g></svg>