<svg height='100px' width='100px'  fill="#eb1871" xmlns:x="http://ns.adobe.com/Extensibility/1.0/" xmlns:i="http://ns.adobe.com/AdobeIllustrator/10.0/" xmlns:graph="http://ns.adobe.com/Graphs/1.0/" xmlns="http://www.w3.org/2000/svg" xmlns:xlink="http://www.w3.org/1999/xlink" version="1.0" x="0px" y="0px" viewBox="0 0 20 20" enable-background="new 0 0 20 20" xml:space="preserve"><g><g i:extraneous="self"><symbol id="a" viewBox="-16 -16 32 32"><g><polygon fill="#eb1871" points="-15.75,-15.75 -15.75,15.75 15.75,15.75 15.75,-15.75     "></polygon><path fill="#eb1871" d="M15.5,15.5v-31h-31v31H15.5 M16,16h-32v-32h32V16L16,16z"></path></g></symbol><symbol viewBox="-55.791 -16 111.582 32"><use xlink:href="#a" width="32" height="32" x="-16" y="-16" transform="matrix(-2.4651 0 0 -1 2.8682 0)" overflow="visible"></use><use xlink:href="#a" width="32" height="32" x="-16" y="-16" transform="matrix(-1 0 0 -1 39.791 0)" overflow="visible"></use><use xlink:href="#a" width="32" height="32" x="-16" y="-16" transform="matrix(-1 0 0 -1 -39.791 0)" overflow="visible"></use><defs><filter id="g" filterUnits="userSpaceOnUse" x="-55.79" y="-16" width="111.58" height="32"><feColorMatrix type="matrix" values="1 0 0 0 0  0 1 0 0 0  0 0 1 0 0  0 0 0 1 0"></feColorMatrix></filter></defs><mask maskUnits="userSpaceOnUse" x="-55.79" y="-16" width="111.58" height="32" id="e"><g filter="url(#g)"><use xlink:href="#f" width="32" height="31" x="-16" y="-15.5" transform="matrix(3.19 0 0 1 0.0723 0)" overflow="visible"></use></g></mask><g transform="matrix(1 0 0 1 0 0)" mask="url(#e)"><use xlink:href="#a" width="32" height="32" x="-16" y="-16" transform="matrix(-3.4869 0 0 -1 0 0)" overflow="visible"></use></g><text transform="matrix(1 0 0 -1 -43.791 -5.3359)" fill="#eb1871" font-family="'FrutigerNextLT-Regular'" font-size="16">Seitenanfang</text></symbol><symbol viewBox="-16 -16 32 32"><use xlink:href="#b" width="32" height="32" x="-16" y="-16" overflow="visible"></use><g><polyline fill="#eb1871" stroke="#eb1871" stroke-width="2" points="-9,-5 0,4 9,-5     "></polyline></g></symbol><symbol id="f" viewBox="-16 -15.5 32 31"><g><polygon fill="#eb1871" points="16,-15.5 -16,-15.5 -16,15.5 16,15.5     "></polygon></g></symbol><symbol viewBox="-16 -16 32 32"><use xlink:href="#b" width="32" height="32" x="-16" y="-16" transform="matrix(-1 0 0 -1 0 0)" overflow="visible"></use><g><polyline fill="#eb1871" stroke="#eb1871" stroke-width="2" points="6,-0.701 0,-7 -6,-0.701     "></polyline><line fill="#eb1871" stroke="#eb1871" stroke-width="2" x1="0" y1="-2" x2="0" y2="7"></line></g></symbol><symbol viewBox="-16 -16 32 32"><g><polygon fill="#eb1871" points="-15.75,-15.75 -15.75,15.75 15.75,15.75 15.75,-15.75     "></polygon><g><path fill="#eb1871" d="M15.5,15.5v-31h-31v31H15.5 M16,16h-32v-32h32V16L16,16z"></path></g></g></symbol><symbol viewBox="-16 -16 32 32"><g><polygon fill="#eb1871" points="-15.75,-15.75 -15.75,15.75 15.75,15.75 15.75,-15.75     "></polygon><path fill="#eb1871" d="M15.5,15.5v-31h-31v31H15.5 M16,16h-32v-32h32V16L16,16z"></path></g></symbol><symbol id="b" viewBox="-16 -16 32 32"><g><polygon fill="#eb1871" points="-15.75,-15.75 -15.75,15.75 15.75,15.75 15.75,-15.75     "></polygon><path fill="#eb1871" d="M15.5,15.5v-31h-31v31H15.5 M16,16h-32v-32h32V16L16,16z"></path></g></symbol><symbol viewBox="-10 -10 20 20"><polygon fill="#eb1871" points="10,-10 -10,-10 -10,10 10,10    "></polygon></symbol><symbol viewBox="-5.707 -3.561 11.414 7.121"><polyline fill="#eb1871" stroke="#eb1871" stroke-width="2" points="5,2.854 0,-2.146 -5,2.854    "></polyline></symbol><symbol viewBox="-8.354 -8.354 16.707 16.707"><defs><filter id="d" filterUnits="userSpaceOnUse" x="-8.354" y="1.939" width="6.414" height="6.414"><feColorMatrix type="matrix" values="-1 0 0 0 1  0 -1 0 0 1  0 0 -1 0 1  0 0 0 1 0" color-interpolation-filters="sRGB" result="source"></feColorMatrix><feFlood style="flood-color:white;flood-opacity:1;" result="back"></feFlood><feBlend in="source" in2="back" mode="normal"></feBlend></filter></defs><mask maskUnits="userSpaceOnUse" x="-8.354" y="1.939" width="6.414" height="6.414" id="c"><g filter="url(#d)"><g><path fill="#eb1871" d="M2.104,8.354c3.453,0,6.25-2.798,6.25-6.251c0-3.451-2.797-6.249-6.25-6.249s-6.25,2.798-6.25,6.249        C-4.146,5.555-1.35,8.354,2.104,8.354 M2.104,10.354c-4.549,0-8.25-3.701-8.25-8.251c0-4.548,3.701-8.249,8.25-8.249        s8.25,3.701,8.25,8.249C10.354,6.652,6.652,10.354,2.104,10.354L2.104,10.354z"></path></g></g></mask><line mask="url(#c)" fill="#eb1871" stroke="#eb1871" stroke-width="2" x1="-2.646" y1="-2.646" x2="-7.646" y2="-7.646"></line><g><path fill="#eb1871" d="M2.104,6.354c2.344,0,4.25-1.907,4.25-4.251c0-2.343-1.906-4.249-4.25-4.249s-4.25,1.906-4.25,4.249      C-2.146,4.446-0.24,6.354,2.104,6.354 M2.104,8.354c-3.453,0-6.25-2.798-6.25-6.251c0-3.451,2.797-6.249,6.25-6.249      s6.25,2.798,6.25,6.249C8.354,5.555,5.557,8.354,2.104,8.354L2.104,8.354z"></path></g></symbol><g><path d="M4,9C3.447,9,3,8.552,3,8c0-2.206,1.794-4,4-4c0.447,0,0.887,0.073,1.306,0.218c0.522,0.181,0.8,0.75,0.619,1.272     C8.743,6.012,8.173,6.288,7.653,6.109C7.444,6.037,7.225,6,7,6C5.897,6,5,6.897,5,8C5,8.552,4.553,9,4,9L4,9z"></path><path d="M10.001,9C9.949,9,9.896,8.996,9.843,8.988c-0.545-0.087-0.917-0.599-0.83-1.145C9.378,5.544,10.98,4,13,4     c2.206,0,4,1.794,4,4c0,0.552-0.447,1-1,1s-1-0.448-1-1c0-1.103-0.897-2-2-2c-1.231,0-1.847,1.114-2.013,2.157     C10.909,8.649,10.484,9,10.001,9L10.001,9z"></path><path d="M10,17c-0.217,0-0.435-0.071-0.615-0.212C8.731,16.278,3,11.698,3,8c0-0.552,0.447-1,1-1s1,0.448,1,1     c0,1.875,2.851,4.904,5,6.712c2.149-1.81,5-4.841,5-6.712c0-0.552,0.447-1,1-1s1,0.448,1,1c0,3.698-5.731,8.278-6.385,8.788     C10.435,16.929,10.217,17,10,17L10,17z"></path></g></g></g></svg>